<?xml version="1.0" standalone="no"?><!DOCTYPE svg PUBLIC "-//W3C//DTD SVG 1.1//EN" "http://www.w3.org/Graphics/SVG/1.1/DTD/svg11.dtd"><svg t="1586425530154" class="icon" viewBox="0 0 1024 1024" version="1.1" xmlns="http://www.w3.org/2000/svg" p-id="1664" xmlns:xlink="http://www.w3.org/1999/xlink" width="32" height="32"><defs><style type="text/css"></style></defs><path d="M963 363.12C963 197.13 845.3 62 700.83 62c-71.36 0-138.9 34.07-187.66 92.2C464.34 96.1 396.74 62 325.51 62 181 62 63.34 197.06 63.34 363.12a146.25 146.25 0 0 0 0.87 14.63c-0.06 1.33-0.13 2.67-0.13 4.08 0 29.4 6.44 61.69 19.11 96 0.41 1.26 0.81 2.44 1.28 3.56 79.88 212.08 387.39 456.09 400.46 467.3a41.72 41.72 0 0 0 55.27-0.29c11.2-9.65 273.5-218.62 377.59-416.31 4-6.68 6.91-13.14 9.53-18.71 0.8-1.78 1.54-3.56 2.41-5.27l0.34-0.82a18.52 18.52 0 0 1 1.14-2 339.52 339.52 0 0 0 15.16-38.08c10.79-31.33 16.09-59.24 16.09-85.3 0-2-0.07-3.78-0.2-5.27a132.79 132.79 0 0 0 0.74-13.52z" fill="#39D1B8" p-id="1665"></path></svg>